<svg xmlns="http://www.w3.org/2000/svg" viewBox="0 0 600 400" role="img" aria-labelledby="title desc">
  <title id="title">Illustration of the Al Noor Farm processing barn</title>
  <desc id="desc">Bright red barn with adjacent packing shed and greenery around it.</desc>
  <defs>
    <linearGradient id="skyGradient" x1="0" x2="0" y1="0" y2="1">
      <stop offset="0%" stop-color="#bae6fd" />
      <stop offset="100%" stop-color="#e0f2fe" />
    </linearGradient>
  </defs>
  <rect width="600" height="400" fill="url(#skyGradient)" />
  <rect y="260" width="600" height="140" fill="#bbf7d0" />
  <rect y="320" width="600" height="80" fill="#86efac" />
  <g transform="translate(100 140)">
    <polygon points="80,0 200,0 240,40 240,200 40,200 40,40" fill="#ef4444" />
    <polygon points="80,0 160,-60 240,0" fill="#b91c1c" />
    <rect x="108" y="40" width="64" height="120" fill="#1f2937" rx="6" />
    <rect x="60" y="64" width="32" height="48" fill="#fde68a" rx="4" />
    <rect x="188" y="64" width="32" height="48" fill="#fde68a" rx="4" />
    <line x1="108" y1="98" x2="172" y2="98" stroke="#f8fafc" stroke-width="4" />
    <line x1="140" y1="40" x2="140" y2="160" stroke="#f8fafc" stroke-width="4" />
  </g>
  <g transform="translate(320 180)">
    <rect x="0" y="40" width="160" height="120" fill="#f97316" rx="12" />
    <polygon points="0,40 80,-10 160,40" fill="#c2410c" />
    <rect x="20" y="76" width="40" height="52" fill="#fde68a" rx="6" />
    <rect x="100" y="76" width="40" height="52" fill="#fde68a" rx="6" />
    <rect x="68" y="112" width="24" height="48" fill="#1f2937" rx="4" />
  </g>
  <g transform="translate(60 220)">
    <rect x="0" y="30" width="42" height="90" fill="#166534" />
    <path d="M21 0 C4 24 4 56 21 60 C38 56 38 24 21 0 Z" fill="#22c55e" />
    <rect x="64" y="42" width="36" height="78" fill="#166534" />
    <path d="M82 8 C66 30 64 54 82 58 C98 54 98 30 82 8 Z" fill="#16a34a" />
  </g>
  <g opacity="0.12" fill="#0f172a">
    <ellipse cx="190" cy="340" rx="90" ry="24" />
    <ellipse cx="380" cy="350" rx="110" ry="28" />
  </g>
</svg>
