<svg xmlns="http://www.w3.org/2000/svg" viewBox="0 0 600 400" role="img" aria-labelledby="title desc">
  <title id="title">Illustration of the Ahmed family at Al Noor Farm</title>
  <desc id="desc">Three family members standing together and smiling in front of the farm.</desc>
  <rect width="600" height="400" fill="#ecfeff" />
  <g transform="translate(0 220)">
    <rect width="600" height="180" fill="#bbf7d0" />
    <rect y="120" width="600" height="60" fill="#86efac" />
  </g>
  <g transform="translate(420 140)">
    <rect x="0" y="40" width="110" height="100" fill="#f97316" rx="12" />
    <polygon points="0,40 55,0 110,40" fill="#b45309" />
    <rect x="36" y="84" width="38" height="56" fill="#1f2937" rx="4" />
    <rect x="16" y="64" width="20" height="24" fill="#fde68a" rx="4" />
  </g>
  <g transform="translate(110 118)">
    <circle cx="70" cy="40" r="36" fill="#fed7aa" />
    <path d="M34 48 Q70 86 106 48 Q94 16 70 16 Q46 16 34 48 Z" fill="#1f2937" />
    <rect x="28" y="86" width="84" height="112" fill="#2563eb" rx="32" />
    <rect x="54" y="134" width="32" height="64" fill="#1d4ed8" rx="16" />
  </g>
  <g transform="translate(240 100)">
    <circle cx="70" cy="44" r="40" fill="#fde68a" />
    <path d="M26 60 Q70 96 114 60 Q104 18 70 18 Q36 18 26 60 Z" fill="#be123c" />
    <rect x="24" y="104" width="92" height="124" fill="#f43f5e" rx="34" />
    <rect x="56" y="152" width="28" height="72" fill="#be123c" rx="14" />
  </g>
  <g transform="translate(360 130)">
    <circle cx="60" cy="36" r="34" fill="#f1f5f9" />
    <path d="M30 44 Q60 74 90 44 Q84 10 60 10 Q36 10 30 44 Z" fill="#0f172a" />
    <rect x="20" y="80" width="80" height="116" fill="#0ea5e9" rx="28" />
    <rect x="46" y="128" width="28" height="68" fill="#0369a1" rx="14" />
  </g>
  <g fill="#0f172a" opacity="0.15">
    <ellipse cx="180" cy="292" rx="70" ry="16" />
    <ellipse cx="310" cy="300" rx="70" ry="18" />
    <ellipse cx="430" cy="296" rx="60" ry="16" />
  </g>
</svg>
