<svg xmlns="http://www.w3.org/2000/svg" viewBox="0 0 600 400" role="img" aria-labelledby="title desc">
  <title id="title">Illustration of fields at Al Noor Farm</title>
  <desc id="desc">Sunrise over gently rolling pasture with a barn and planted rows.</desc>
  <defs>
    <linearGradient id="sky" x1="0" x2="0" y1="0" y2="1">
      <stop offset="0%" stop-color="#dbeafe" />
      <stop offset="80%" stop-color="#bfdbfe" />
    </linearGradient>
    <linearGradient id="field" x1="0" x2="0" y1="0" y2="1">
      <stop offset="0%" stop-color="#bbf7d0" />
      <stop offset="100%" stop-color="#4ade80" />
    </linearGradient>
    <linearGradient id="furrow" x1="0" x2="1" y1="0" y2="0">
      <stop offset="0%" stop-color="#86efac" stop-opacity="0.4" />
      <stop offset="100%" stop-color="#16a34a" stop-opacity="0.6" />
    </linearGradient>
  </defs>
  <rect width="600" height="220" fill="url(#sky)" />
  <rect y="220" width="600" height="180" fill="url(#field)" />
  <circle cx="470" cy="80" r="28" fill="#fde68a" />
  <path d="M0 210 Q150 180 300 210 T600 210 V240 H0 Z" fill="#86efac" />
  <path d="M0 260 Q180 220 320 250 T600 260 V400 H0 Z" fill="#22c55e" opacity="0.8" />
  <g fill="none" stroke="url(#furrow)" stroke-width="10">
    <path d="M0 300 Q200 260 400 280 T600 310" />
    <path d="M0 330 Q220 290 400 305 T600 330" />
    <path d="M0 360 Q220 320 400 330 T600 350" />
  </g>
  <g transform="translate(340 180)">
    <rect x="0" y="0" width="90" height="60" fill="#f97316" rx="6" />
    <polygon points="-5,0 45,-40 95,0" fill="#b45309" />
    <rect x="20" y="26" width="26" height="34" fill="#1e293b" rx="2" />
    <rect x="60" y="18" width="24" height="18" fill="#fde68a" rx="2" />
  </g>
  <g transform="translate(120 180)">
    <rect x="0" y="24" width="10" height="46" fill="#166534" />
    <path d="M5 10 C-2 20 -4 32 5 36 C14 32 12 20 5 10 Z" fill="#22c55e" />
    <rect x="36" y="16" width="10" height="54" fill="#166534" />
    <path d="M41 0 C30 16 30 36 41 40 C52 36 52 16 41 0 Z" fill="#16a34a" />
    <rect x="64" y="28" width="8" height="42" fill="#166534" />
    <path d="M68 12 C60 24 60 34 68 36 C76 34 76 24 68 12 Z" fill="#22c55e" />
  </g>
</svg>
