<svg xmlns="http://www.w3.org/2000/svg" viewBox="0 0 512 512" role="img" aria-labelledby="title desc">
  <title id="title">Customer Laila Hosting Workshop</title>
  <desc id="desc">Illustration of a customer leading a farm-to-table workshop surrounded by produce.</desc>
  <defs>
    <linearGradient id="indoor" x1="0" y1="0" x2="0" y2="1">
      <stop offset="0%" stop-color="#fff5f7" />
      <stop offset="100%" stop-color="#ffe4f0" />
    </linearGradient>
    <linearGradient id="table" x1="0" y1="0" x2="1" y2="1">
      <stop offset="0%" stop-color="#d7ccc8" />
      <stop offset="100%" stop-color="#bcaaa4" />
    </linearGradient>
  </defs>
  <rect width="512" height="512" fill="url(#indoor)" />
  <g transform="translate(0,24)">
    <ellipse cx="256" cy="436" rx="148" ry="24" fill="rgba(0,0,0,0.06)" />
    <rect x="72" y="76" width="368" height="216" rx="24" fill="#ffffff" stroke="#f48fb1" stroke-width="8" />
    <rect x="110" y="120" width="100" height="64" fill="#f8bbd0" rx="8" />
    <rect x="302" y="120" width="100" height="64" fill="#f8bbd0" rx="8" />
    <rect x="152" y="320" width="208" height="42" rx="8" fill="#f06292" />
    <rect x="96" y="352" width="320" height="72" rx="20" fill="url(#table)" />
    <path d="M224 228h64v102c0 18-14 32-32 32s-32-14-32-32V228z" fill="#ffe0b2" />
    <circle cx="256" cy="188" r="52" fill="#ffd6a5" />
    <path d="M214 170c6-28 34-50 70-40 20 6 32 26 28 44-26-14-64-20-98-4z" fill="#5c3d2e" />
    <path d="M324 210c-6 22-24 38-44 38h-36c-20 0-38-16-44-38z" fill="#ab47bc" />
    <rect x="176" y="260" width="160" height="48" rx="14" fill="#ba68c8" />
    <g transform="translate(140,338)">
      <ellipse cx="26" cy="40" rx="26" ry="18" fill="#aed581" />
      <ellipse cx="74" cy="26" rx="24" ry="16" fill="#ffcc80" />
      <ellipse cx="122" cy="44" rx="26" ry="18" fill="#4db6ac" />
      <ellipse cx="170" cy="28" rx="24" ry="16" fill="#ffab91" />
      <ellipse cx="218" cy="40" rx="26" ry="18" fill="#81d4fa" />
    </g>
    <g transform="translate(126,132)">
      <rect x="0" y="0" width="36" height="36" rx="6" fill="#fff" stroke="#f06292" stroke-width="4" />
      <rect x="72" y="0" width="36" height="36" rx="6" fill="#fff" stroke="#f06292" stroke-width="4" />
      <rect x="144" y="0" width="36" height="36" rx="6" fill="#fff" stroke="#f06292" stroke-width="4" />
      <rect x="216" y="0" width="36" height="36" rx="6" fill="#fff" stroke="#f06292" stroke-width="4" />
    </g>
    <text x="256" y="410" text-anchor="middle" font-family="Arial, sans-serif" font-size="20" fill="#6d4c41">
      Teaching seasonal cooking with heart
    </text>
  </g>
</svg>
